<svg xmlns="http://www.w3.org/2000/svg" width="115.286" height="70" viewBox="0 0 115.286 70">
  <g id="map-logo" transform="translate(-298.714 -15)">
    <g id="Group_136" data-name="Group 136" transform="translate(-547.286 -93.57)">
      <g id="MAP-India" transform="translate(846 108.57)">
        <g id="Group_61" data-name="Group 61">
          <g id="Group_60" data-name="Group 60">
            <path id="Path_6" data-name="Path 6" d="M42.714,50.814h-25a3.294,3.294,0,0,1-2.857-1.571L2.429,27.529a3.363,3.363,0,0,1,0-3.286L14.857,2.671A3.294,3.294,0,0,1,17.714,1.1h0a3.294,3.294,0,0,1,2.857,1.571l9.571,16.714L39.857,2.671A3.294,3.294,0,0,1,42.714,1.1h0a3.294,3.294,0,0,1,2.857,1.571L58,24.243a3.234,3.234,0,1,1-5.571,3.286L42.714,10.814,33,27.529A3.294,3.294,0,0,1,30.143,29.1h0a3.294,3.294,0,0,1-2.857-1.571L17.714,10.814,9,25.957,19.571,44.243H42.714a3.286,3.286,0,1,1,0,6.571Z" transform="translate(-2 -1.1)" fill="#0d1e34"/>
          </g>
        </g>
        <g id="Group_74" data-name="Group 74" transform="translate(50.714 52.714)">
          <g id="Group_62" data-name="Group 62" transform="translate(7.143 2)">
            <path id="Path_7" data-name="Path 7" d="M45.786,39.4h1.286v4.571H45.786V43.4a2.047,2.047,0,0,1-1.571.714A1.691,1.691,0,0,1,42.5,42.257V39.4h1.286v2.571c0,.714.429,1,.857,1a1.2,1.2,0,0,0,1-.571v-3Z" transform="translate(-42.5 -39.4)" fill="#0d1e34"/>
          </g>
          <g id="Group_63" data-name="Group 63" transform="translate(12.429 1.714)">
            <path id="Path_8" data-name="Path 8" d="M46.343,43.771V42.629A3.573,3.573,0,0,0,48.2,43.2c.571,0,.714-.143.714-.429,0-.143,0-.143-.286-.286-.143,0-.143,0-.286-.143l-.286-.143c-.143,0-.286-.143-.429-.143-1-.286-1.429-.571-1.429-1.429s.714-1.429,2-1.429a3.046,3.046,0,0,1,1.714.429v1.143a3.725,3.725,0,0,0-1.571-.429c-.429,0-.714.143-.714.429a.307.307,0,0,0,.286.286c.143,0,.286.143.429.143l.429.143c1,.286,1.429.714,1.429,1.429a1.078,1.078,0,0,1-.571,1A2.413,2.413,0,0,1,48.2,44.2,3.574,3.574,0,0,1,46.343,43.771Z" transform="translate(-46.2 -39.2)" fill="#0d1e34"/>
          </g>
          <g id="Group_64" data-name="Group 64" transform="translate(17 2)">
            <path id="Path_9" data-name="Path 9" d="M50.114,43.543A2.429,2.429,0,0,1,51.829,39.4a2.047,2.047,0,0,1,1.571.714,2.277,2.277,0,0,1,.571,1.714v.286H50.686a1.484,1.484,0,0,0,1.571,1,2.413,2.413,0,0,0,1.429-.429v1a3.047,3.047,0,0,1-1.714.429A2.634,2.634,0,0,1,50.114,43.543Zm2.571-2.286c0-.571-.429-.857-1-.857a.955.955,0,0,0-1,.857Z" transform="translate(-49.4 -39.4)" fill="#0d1e34"/>
          </g>
          <g id="Group_65" data-name="Group 65" transform="translate(22.143 2)">
            <path id="Path_10" data-name="Path 10" d="M56.286,39.4h1.286v4.571H56.286V43.4a2.047,2.047,0,0,1-1.571.714A1.691,1.691,0,0,1,53,42.257V39.4h1.429v2.571c0,.714.429,1,.857,1a1.2,1.2,0,0,0,1-.571Z" transform="translate(-53 -39.4)" fill="#0d1e34"/>
          </g>
          <g id="Group_66" data-name="Group 66" transform="translate(27.714 2)">
            <path id="Path_11" data-name="Path 11" d="M56.9,44.114V39.543h1.286v.571a1.758,1.758,0,0,1,1.429-.714,1.576,1.576,0,0,1,1.429.714,1.843,1.843,0,0,1,1.571-.714c1,0,1.571.571,1.571,1.857v2.857H62.9V41.543c0-.571-.286-1-.714-1a1.446,1.446,0,0,0-1,.571v2.857H59.9V41.4c0-.571-.286-1-.714-1a1.446,1.446,0,0,0-1,.571v3H56.9Z" transform="translate(-56.9 -39.4)" fill="#0d1e34"/>
          </g>
          <g id="Group_67" data-name="Group 67" transform="translate(37.857 1.857)">
            <path id="Path_12" data-name="Path 12" d="M64.714,40.014a2.716,2.716,0,0,1,1.857-.714,3.009,3.009,0,0,1,1.857.714,2.414,2.414,0,0,1,0,3.429,2.716,2.716,0,0,1-1.857.714,3.009,3.009,0,0,1-1.857-.714A1.923,1.923,0,0,1,64,41.729,2.263,2.263,0,0,1,64.714,40.014Zm1.714,3a.864.864,0,0,0,.857-.429,1.05,1.05,0,0,0,.286-.857,1.208,1.208,0,0,0-.286-.857,1.235,1.235,0,0,0-.857-.429.864.864,0,0,0-.857.429,1.05,1.05,0,0,0-.286.857,1.208,1.208,0,0,0,.286.857A.856.856,0,0,0,66.429,43.014Z" transform="translate(-64 -39.3)" fill="#0d1e34"/>
          </g>
          <g id="Group_68" data-name="Group 68" transform="translate(56.143 2)">
            <path id="Path_13" data-name="Path 13" d="M76.8,44.114V39.543h1.286v.714a1.115,1.115,0,0,1,.571-.571,2.065,2.065,0,0,1,1-.286H79.8v1.286h-.429a1.447,1.447,0,0,0-1.286.857v2.714H76.8Z" transform="translate(-76.8 -39.4)" fill="#0d1e34"/>
          </g>
          <g id="Group_73" data-name="Group 73">
            <g id="Group_69" data-name="Group 69" transform="translate(0 0.286)">
              <path id="Path_14" data-name="Path 14" d="M37.5,44.629V38.2h1.286l1.857,2.714L42.5,38.2h1.286v6.429H42.5V40.2l-1.857,2.571L38.786,40.2v4.429Z" transform="translate(-37.5 -38.2)" fill="#0d1e34"/>
            </g>
            <g id="Group_70" data-name="Group 70" transform="translate(43.143)">
              <path id="Path_15" data-name="Path 15" d="M69.843,44.714H68.557V41.143H67.7V40h.857v-.429A1.5,1.5,0,0,1,70.129,38a2.785,2.785,0,0,1,1.143.143v1A1.553,1.553,0,0,0,70.557,39c-.429,0-.571.143-.571.571v.286h1.429V41H69.986v3.714Z" transform="translate(-67.7 -38)" fill="#0d1e34"/>
            </g>
            <g id="Group_71" data-name="Group 71" transform="translate(49 0.143)">
              <path id="Path_16" data-name="Path 16" d="M71.8,44.671,74.514,38.1H75.8l2.714,6.571H77.086l-.571-1.429H73.8l-.571,1.429Zm2.286-2.714h1.857l-1-2.286Z" transform="translate(-71.8 -38.1)" fill="#0d1e34"/>
            </g>
            <g id="Group_72" data-name="Group 72" transform="translate(59.714 0.714)">
              <path id="Path_17" data-name="Path 17" d="M80.157,40.929H79.3V39.786h.857V38.5h1.286v1.286h1.286v1.143H81.443v1.857c0,.429.143.714.571.714a1.288,1.288,0,0,0,.714-.143V44.5a2.213,2.213,0,0,1-1.143.286c-1,0-1.429-.571-1.429-1.571Z" transform="translate(-79.3 -38.5)" fill="#0d1e34"/>
            </g>
          </g>
        </g>
        <g id="Group_87" data-name="Group 87" transform="translate(50.286 61)">
          <g id="Group_75" data-name="Group 75">
            <path id="Path_18" data-name="Path 18" d="M41.629,45.943a2.047,2.047,0,0,0-1.429-.571.8.8,0,0,0-.857.714c0,.143,0,.286.143.286a1.5,1.5,0,0,0,.429.571l1.571,1.571a2.853,2.853,0,0,0,.286-1.286h1.286a3.509,3.509,0,0,1-.714,2.143l1.286,1.286H42.057l-.571-.571a2.871,2.871,0,0,1-1.857.571,2.277,2.277,0,0,1-1.714-.571,2.047,2.047,0,0,1-.714-1.571,2.691,2.691,0,0,1,.286-1.143c.286-.286.429-.571.714-.714a1.36,1.36,0,0,1-.286-1,1.551,1.551,0,0,1,.571-1.286,2.182,2.182,0,0,1,1.429-.571,3.8,3.8,0,0,1,1.714.429Zm-1,3.429L39.057,47.8a1.2,1.2,0,0,0-.571,1,1.019,1.019,0,0,0,1.143,1A1.3,1.3,0,0,0,40.629,49.371Z" transform="translate(-37.2 -43.8)" fill="#0d1e34"/>
          </g>
          <g id="Group_76" data-name="Group 76" transform="translate(9.143 0.571)">
            <path id="Path_19" data-name="Path 19" d="M43.6,50.629V44.2h2.714a1.78,1.78,0,0,1,1.571.571,2.071,2.071,0,0,1,0,2.857,2.148,2.148,0,0,1-1.571.571H44.886v2.571H43.6Zm1.286-3.714h1.429c.571,0,1-.286,1-.857s-.429-.857-1-.857H44.886Z" transform="translate(-43.6 -44.2)" fill="#0d1e34"/>
          </g>
          <g id="Group_77" data-name="Group 77" transform="translate(14.857 0.571)">
            <path id="Path_20" data-name="Path 20" d="M48.886,50.629H47.6V44.2h1.286v2.429a2.047,2.047,0,0,1,1.571-.714,1.691,1.691,0,0,1,1.714,1.857v2.857H50.886V48.057c0-.714-.429-1-.857-1a1.2,1.2,0,0,0-1,.571v3Z" transform="translate(-47.6 -44.2)" fill="#0d1e34"/>
          </g>
          <g id="Group_78" data-name="Group 78" transform="translate(20 2.286)">
            <path id="Path_21" data-name="Path 21" d="M51.914,46.114a2.468,2.468,0,0,1,1.857-.714,3.009,3.009,0,0,1,1.857.714,2.414,2.414,0,0,1,0,3.429,2.468,2.468,0,0,1-1.857.714,3.009,3.009,0,0,1-1.857-.714,2.414,2.414,0,0,1,0-3.429Zm1.857,3a1.018,1.018,0,0,0,.857-.429,1.235,1.235,0,0,0,.429-.857.864.864,0,0,0-.429-.857,1.235,1.235,0,0,0-.857-.429.864.864,0,0,0-.857.429,1.05,1.05,0,0,0-.286.857,1.207,1.207,0,0,0,.286.857A.864.864,0,0,0,53.771,49.114Z" transform="translate(-51.2 -45.4)" fill="#0d1e34"/>
          </g>
          <g id="Group_79" data-name="Group 79" transform="translate(25.286 1)">
            <path id="Path_22" data-name="Path 22" d="M55.757,46.929H54.9V45.786h.857V44.5h1.286v1.286h1.286v1.143H57.043v1.857c0,.429.143.714.571.714a1.288,1.288,0,0,0,.714-.143V50.5a2.213,2.213,0,0,1-1.143.286c-1,0-1.429-.571-1.429-1.571Z" transform="translate(-54.9 -44.5)" fill="#0d1e34"/>
          </g>
          <g id="Group_80" data-name="Group 80" transform="translate(29.286 2.286)">
            <path id="Path_23" data-name="Path 23" d="M58.414,46.114a2.468,2.468,0,0,1,1.857-.714,3.009,3.009,0,0,1,1.857.714,2.414,2.414,0,0,1,0,3.429,2.468,2.468,0,0,1-1.857.714,3.009,3.009,0,0,1-1.857-.714,2.366,2.366,0,0,1-.714-1.714A1.923,1.923,0,0,1,58.414,46.114Zm1.714,3a.864.864,0,0,0,.857-.429,1.05,1.05,0,0,0,.286-.857,1.208,1.208,0,0,0-.286-.857,1.235,1.235,0,0,0-.857-.429.864.864,0,0,0-.857.429,1.05,1.05,0,0,0-.286.857,1.208,1.208,0,0,0,.286.857A1.235,1.235,0,0,0,60.129,49.114Z" transform="translate(-57.7 -45.4)" fill="#0d1e34"/>
          </g>
          <g id="Group_81" data-name="Group 81" transform="translate(34.714 2.143)">
            <path id="Path_24" data-name="Path 24" d="M65.071,45.586h1.286v4.143a2.354,2.354,0,0,1-2.571,2.429,3.047,3.047,0,0,1-1.714-.429V50.586a2.88,2.88,0,0,0,1.571.429c.714,0,1.429-.286,1.429-1.286v-.286a1.758,1.758,0,0,1-1.429.714A2.21,2.21,0,0,1,61.5,47.729a2.494,2.494,0,0,1,.571-1.714,2.047,2.047,0,0,1,1.571-.714,1.758,1.758,0,0,1,1.429.714Zm0,2.714V47.157c-.143-.429-.571-.571-1.143-.571a1.127,1.127,0,0,0-1.143,1.143,1.051,1.051,0,0,0,1.143,1.143C64.5,48.871,64.929,48.729,65.071,48.3Z" transform="translate(-61.5 -45.3)" fill="#0d1e34"/>
          </g>
          <g id="Group_82" data-name="Group 82" transform="translate(40.571 2.286)">
            <path id="Path_25" data-name="Path 25" d="M65.6,50.114V45.543h1.286v.714a1.115,1.115,0,0,1,.571-.571,2.065,2.065,0,0,1,1-.286H68.6v1.286h-.429a1.447,1.447,0,0,0-1.286.857v2.714H65.6Z" transform="translate(-65.6 -45.4)" fill="#0d1e34"/>
          </g>
          <g id="Group_83" data-name="Group 83" transform="translate(43.857 2.143)">
            <path id="Path_26" data-name="Path 26" d="M72.9,49.157v1a1.071,1.071,0,0,1-.714.143c-.571,0-.857-.143-1-.571a1.951,1.951,0,0,1-1.571.571A1.541,1.541,0,0,1,67.9,48.729a1.3,1.3,0,0,1,.571-1.143,1.746,1.746,0,0,1,1.286-.429,2.852,2.852,0,0,1,1.286.286V47.3c0-.571-.429-.857-1.143-.857a2.756,2.756,0,0,0-1.429.429V45.729a3.046,3.046,0,0,1,1.714-.429,2.88,2.88,0,0,1,1.571.429,1.393,1.393,0,0,1,.571,1.286v1.571c0,.286.143.286.286.286C72.757,49.157,72.9,49.157,72.9,49.157ZM71.043,48.3a2.064,2.064,0,0,0-1-.286c-.571,0-.857.286-.857.571,0,.429.286.571.857.571a1.112,1.112,0,0,0,1-.429Z" transform="translate(-67.9 -45.3)" fill="#0d1e34"/>
          </g>
          <g id="Group_84" data-name="Group 84" transform="translate(49.571 2.286)">
            <path id="Path_27" data-name="Path 27" d="M76.186,46.114a2.857,2.857,0,0,1,0,3.429,2.047,2.047,0,0,1-1.571.714,1.576,1.576,0,0,1-1.429-.714v2.429H71.9V45.543h1.286v.571a1.758,1.758,0,0,1,1.429-.714A1.675,1.675,0,0,1,76.186,46.114Zm-3,1.143V48.4a1.131,1.131,0,0,0,1.143.714,1.018,1.018,0,0,0,.857-.429,1.05,1.05,0,0,0,.286-.857,1.208,1.208,0,0,0-.286-.857,1.235,1.235,0,0,0-.857-.429A1.131,1.131,0,0,0,73.186,47.257Z" transform="translate(-71.9 -45.4)" fill="#0d1e34"/>
          </g>
          <g id="Group_85" data-name="Group 85" transform="translate(55.143 0.571)">
            <path id="Path_28" data-name="Path 28" d="M77.086,50.629H75.8V44.2h1.286v2.429a2.047,2.047,0,0,1,1.571-.714,1.691,1.691,0,0,1,1.714,1.857v2.857H79.086V48.057c0-.714-.429-1-.857-1a1.2,1.2,0,0,0-1,.571v3Z" transform="translate(-75.8 -44.2)" fill="#0d1e34"/>
          </g>
          <g id="Group_86" data-name="Group 86" transform="translate(60 2.429)">
            <path id="Path_29" data-name="Path 29" d="M79.486,51.786V50.643a1.07,1.07,0,0,0,.714.143c.429,0,.714-.286,1-.857l-2-4.429h1.429l1.143,3,1.143-3H84.2l-2,5a1.924,1.924,0,0,1-1.857,1.429A1.812,1.812,0,0,1,79.486,51.786Z" transform="translate(-79.2 -45.5)" fill="#0d1e34"/>
          </g>
        </g>
        <g id="Group_91" data-name="Group 91" transform="translate(50.714 33.429)">
          <g id="Group_88" data-name="Group 88">
            <path id="Path_30" data-name="Path 30" d="M37.5,40.643V24.5h4l4,6.286,4-6.286h4V40.643H49.643V30.786l-4,6-4-6v9.857Z" transform="translate(-37.5 -24.5)" fill="#0d1e34"/>
          </g>
          <g id="Group_89" data-name="Group 89" transform="translate(17.429)">
            <path id="Path_31" data-name="Path 31" d="M49.7,40.643,56.271,24.5h4l6.571,16.143H62.414l-1.286-3.429H55.271l-1.286,3.429Zm7-6.714h3.286l-1.714-4.286Z" transform="translate(-49.7 -24.5)" fill="#0d1e34"/>
          </g>
          <g id="Group_90" data-name="Group 90" transform="translate(36)">
            <path id="Path_32" data-name="Path 32" d="M62.7,40.643V24.5h7.143a6.227,6.227,0,0,1,4.286,1.429,5.175,5.175,0,0,1,0,7.429,5.771,5.771,0,0,1-4.286,1.429h-3v6H62.7Zm4.143-9.429h2.714c1.143,0,2-.571,2-1.571s-.714-1.571-2-1.571H66.843Z" transform="translate(-62.7 -24.5)" fill="#0d1e34"/>
          </g>
        </g>
      </g>
    </g>
  </g>
</svg>
