<?xml version="1.0" standalone="no"?>
<!DOCTYPE svg PUBLIC "-//W3C//DTD SVG 20010904//EN"
 "http://www.w3.org/TR/2001/REC-SVG-20010904/DTD/svg10.dtd">
<svg version="1.0" xmlns="http://www.w3.org/2000/svg"
 width="279.000000pt" height="191.000000pt" viewBox="0 0 279.000000 191.000000"
 preserveAspectRatio="xMidYMid meet">

<g transform="translate(0.000000,191.000000) scale(0.100000,-0.100000)"
fill="#FFFFFF" stroke="none">
<path d="M1287 1419 c-22 -13 -47 -61 -47 -91 0 -38 35 -85 69 -93 39 -8 102
11 95 30 -4 10 -10 9 -25 -6 -38 -38 -92 -13 -109 50 -17 64 11 111 67 111 18
0 33 -4 33 -10 0 -5 5 -10 10 -10 6 0 10 7 10 15 0 18 -74 21 -103 4z"/>
<path d="M1470 1360 c-20 -20 -26 -63 -14 -95 8 -21 46 -35 73 -28 24 6 51 50
51 83 0 28 -35 60 -65 60 -14 0 -34 -9 -45 -20z m68 -2 c17 -17 15 -84 -3
-102 -40 -39 -85 39 -55 95 12 21 40 25 58 7z"/>
<path d="M1652 1348 c4 -22 -24 -108 -36 -108 -13 0 15 -20 29 -20 6 0 11 12
11 28 3 51 21 82 49 82 14 0 28 -7 31 -15 8 -20 -15 -87 -34 -102 -9 -7 -11
-13 -5 -13 6 0 19 -3 28 -6 9 -4 15 -3 13 2 -1 5 4 31 11 57 12 43 17 48 40
45 34 -4 39 -39 13 -90 -16 -31 -17 -38 -5 -42 22 -9 35 -7 28 4 -3 5 1 31 8
58 18 61 9 82 -37 82 -21 0 -36 6 -40 15 -3 9 -19 15 -41 15 -19 0 -35 5 -35
10 0 6 -7 10 -15 10 -9 0 -15 -6 -13 -12z"/>
<path d="M1150 1340 c-13 -8 -12 -10 3 -10 14 0 17 -9 17 -57 l-1 -58 -35 40
c-19 22 -33 47 -30 57 3 14 0 15 -28 5 -18 -7 -25 -13 -16 -15 22 -5 100 -106
100 -130 0 -12 -8 -25 -17 -31 -10 -5 -14 -13 -10 -17 4 -4 15 0 25 9 13 14
18 41 22 117 5 101 2 111 -30 90z"/>
<path d="M944 1325 c-16 -12 -16 -14 -3 -15 9 0 22 -6 28 -13 8 -10 4 -19 -19
-36 -39 -28 -42 -80 -5 -116 29 -30 42 -31 75 -8 14 10 31 18 38 20 17 2 29
13 15 13 -6 0 -30 35 -53 78 -51 95 -52 95 -76 77z m68 -110 c20 -41 21 -47 6
-61 -23 -23 -57 -9 -74 32 -17 41 -17 39 2 58 26 26 43 18 66 -29z"/>
<path d="M1935 1230 c8 -12 -85 -148 -103 -152 -7 -2 1 -12 20 -22 24 -15 30
-16 20 -4 -10 13 -9 19 6 38 16 20 19 21 31 6 21 -25 68 -20 96 10 38 41 29
105 -14 104 -13 -1 -13 -2 2 -11 25 -14 21 -56 -8 -84 -27 -28 -37 -30 -66
-15 -26 14 -25 20 17 75 29 37 34 49 23 56 -19 12 -32 11 -24 -1z"/>
<path d="M821 1176 c-9 -10 -8 -15 3 -19 7 -3 26 -22 42 -42 l27 -36 -21 -21
-21 -21 -44 47 c-38 42 -45 46 -56 32 -11 -13 -11 -16 2 -16 9 0 25 -14 37
-30 12 -17 31 -35 43 -41 17 -10 24 -8 42 13 11 13 29 27 39 31 17 7 17 9 3
20 -8 6 -31 31 -50 54 -28 34 -37 40 -46 29z"/>
<path d="M2117 1094 c23 -23 24 -27 10 -41 -14 -14 -17 -14 -38 1 -13 9 -31
16 -40 16 -42 0 -49 -62 -8 -75 10 -4 19 -12 19 -20 0 -7 8 -16 17 -19 10 -4
14 -4 10 0 -4 4 11 27 33 50 22 24 40 48 40 54 0 14 -46 60 -59 60 -6 0 2 -12
16 -26z m-21 -55 c3 -6 -2 -20 -13 -30 -16 -17 -21 -17 -38 -6 -24 19 -13 47
19 47 14 0 28 -5 32 -11z"/>
<path d="M694 1059 c-3 -6 -15 -8 -26 -6 -14 4 -18 2 -14 -10 3 -8 6 -20 6
-25 0 -6 3 -8 6 -5 4 3 25 -9 47 -28 46 -40 71 -44 87 -15 7 14 7 20 0 20 -5
0 -10 -4 -10 -10 0 -19 -27 -10 -66 24 -34 29 -37 35 -25 50 7 9 11 16 8 16
-3 0 -9 -5 -13 -11z"/>
<path d="M2210 986 c0 -17 -77 -69 -90 -61 -14 9 -12 -7 3 -27 12 -15 14 -15
24 0 6 10 26 26 46 37 30 16 38 17 51 6 9 -8 16 -20 16 -27 0 -18 -79 -76 -92
-68 -6 4 -2 -5 7 -20 18 -28 27 -34 20 -13 -3 7 13 23 36 37 61 37 68 58 32
90 -16 14 -28 31 -26 37 2 6 -3 13 -12 16 -9 4 -15 1 -15 -7z"/>
<path d="M534 949 c-12 -25 -14 -37 -5 -55 13 -29 38 -30 96 -4 24 11 51 17
59 14 33 -13 11 -84 -26 -84 -17 0 -19 -3 -10 -12 9 -9 17 -7 36 11 33 31 41
68 20 92 -22 24 -34 24 -88 -2 -50 -25 -76 -20 -76 14 0 27 24 52 40 42 5 -3
10 -1 10 4 0 25 -40 10 -56 -20z"/>
<path d="M2370 835 c0 -8 7 -15 15 -15 8 0 15 7 15 15 0 8 -7 15 -15 15 -8 0
-15 -7 -15 -15z"/>
<path d="M2320 821 c0 -6 -22 -22 -49 -35 -36 -19 -51 -22 -60 -13 -15 15 -13
-3 4 -33 10 -17 14 -20 15 -9 0 10 21 26 55 40 52 23 67 40 45 54 -5 3 -10 1
-10 -4z"/>
<path d="M520 811 c0 -5 -3 -17 -6 -25 -4 -11 -2 -15 8 -11 13 5 102 -55 93
-63 -9 -10 -115 10 -115 21 0 14 -20 -13 -20 -28 0 -6 30 -9 75 -7 83 4 105
-5 105 -44 0 -13 5 -24 10 -24 6 0 10 10 10 22 0 13 -28 47 -77 95 -42 40 -78
73 -80 73 -2 0 -3 -4 -3 -9z"/>
<path d="M2300 723 c-49 -18 -66 -75 -32 -106 28 -25 84 -22 110 6 28 30 28
52 -3 82 -23 24 -44 29 -75 18z m74 -29 c9 -8 16 -18 16 -22 -1 -44 -112 -73
-125 -32 -8 26 1 39 39 56 41 17 51 17 70 -2z"/>
<path d="M397 626 c-5 -15 -7 -30 -5 -31 2 -1 35 -18 73 -38 77 -39 80 -35
-37 -57 -53 -11 -58 -14 -58 -38 0 -16 3 -22 8 -15 9 14 160 -18 172 -37 8
-13 20 10 20 38 0 13 -2 14 -8 4 -7 -10 -22 -10 -80 0 -40 7 -72 15 -72 18 0
4 33 13 73 20 39 7 78 15 86 18 8 3 -21 23 -70 49 l-84 43 80 -6 c44 -4 83
-12 87 -18 4 -6 8 2 8 17 0 17 -4 26 -10 22 -6 -4 -46 -3 -90 1 -61 5 -80 10
-82 23 -3 10 -7 5 -11 -13z"/>
<path d="M2409 551 c-3 -7 -30 -15 -62 -18 -50 -5 -57 -9 -57 -27 0 -13 3 -16
8 -9 8 13 92 20 110 9 19 -12 14 -44 -9 -57 -12 -6 -40 -9 -63 -7 -41 3 -42 3
-37 -27 3 -19 6 -23 9 -12 2 12 13 17 40 17 80 0 109 28 78 75 -11 16 -12 25
-4 27 8 3 8 9 1 22 -7 12 -12 14 -14 7z"/>
</g>
</svg>